<svg height="512" viewBox="0 0 74 74" width="512" xmlns="http://www.w3.org/2000/svg"><g id="line_color" data-name="line color"><rect fill="#e7aa6c" height="7.708" rx="1.578" width="60.071" x="6.964" y="22.051"/><path d="m47.518 66.207h-21.036a.5.5 0 1 1 0-1h21.036a.5.5 0 0 1 0 1z" fill="#323c6b"/><path d="m10.6 29.76h52.8v25.74h-52.8z" fill="#e7aa6c"/><path d="m60.61 29.76h2.79v25.74h-2.79z" fill="#d09865"/><path d="m47.518 66.207h-21.036a.5.5 0 1 1 0-1h21.036a.5.5 0 0 1 0 1z" fill="#323c6b"/><path d="m63.4 55.5v8.25a1.963 1.963 0 0 1 -1.96 1.96h-48.88a1.963 1.963 0 0 1 -1.96-1.96v-8.25z" fill="#d09865"/><path d="m31.978 22.051 2.054-5.324 1.82-.784.864-3.237-7.075-6.239-8.551 5.493-8.115 3.492-2.521 6.599z" fill="#e1e6e9"/><path d="m63.546 22.051-1.634-2.578-5.014-2.18.884-3.322-7.084-6.23-8.552 5.493-6.294 2.709-1.82.784-2.054 5.324z" fill="#e1e6e9"/><path d="m29.641 6.467-2.246 1.443 6.883 6.07-.863 3.237-1.821.784-1.562 4.05h1.946l2.054-5.324 1.82-.784.864-3.237z" fill="#d5d6db"/><path d="m55.345 15.245-.885 3.322 5.015 2.18.826 1.304h3.245l-1.634-2.578-5.014-2.18.884-3.322-7.084-6.23-2.246 1.443z" fill="#d5d6db"/><path d="m15.909 33.695h42.182v17.361h-42.182z" fill="#d09865"/><g fill="#323c6b"><path d="m58.091 51.555h-42.182a.5.5 0 0 1 -.5-.5v-17.36a.5.5 0 0 1 .5-.5h42.182a.5.5 0 0 1 .5.5v17.36a.5.5 0 0 1 -.5.5zm-41.683-1h41.183v-16.36h-41.182z"/><path d="m58.091 51.555a.5.5 0 0 1 -.19-.038l-42.183-17.36a.5.5 0 1 1 .381-.925l42.183 17.36a.5.5 0 0 1 -.19.962z"/><path d="m15.909 51.555a.5.5 0 0 1 -.19-.962l42.181-17.361a.5.5 0 1 1 .381.925l-42.181 17.361a.5.5 0 0 1 -.191.037z"/><path d="m61.443 69.207a.5.5 0 0 1 0-1 4.46 4.46 0 0 0 4.457-4.455v-1.877a.5.5 0 0 1 1 0v1.877a5.461 5.461 0 0 1 -5.457 5.455z"/><path d="m66.4 60.344a.5.5 0 0 1 -.5-.5v-.687a.5.5 0 0 1 1 0v.688a.5.5 0 0 1 -.5.499z"/><path d="m22.558 8.707a.5.5 0 0 1 -.271-.921l.374-.24a.5.5 0 1 1 .54.842l-.374.24a.5.5 0 0 1 -.269.079z"/><path d="m24.542 7.373a.5.5 0 0 1 -.271-.921l5.257-3.377a.5.5 0 0 1 .591.037l3.49 2.917a.5.5 0 0 1 -.642.768l-3.207-2.682-4.947 3.179a.5.5 0 0 1 -.271.079z"/><path d="m31.978 22.551h-21.524a.5.5 0 0 1 -.467-.679l2.522-6.6a.5.5 0 0 1 .27-.281l8.113-3.491 8.479-5.455a.5.5 0 0 1 .6.046l7.074 6.239a.5.5 0 0 1 .152.5l-.864 3.237a.5.5 0 0 1 -.285.331l-1.627.7-1.978 5.128a.5.5 0 0 1 -.465.325zm-20.8-1h20.457l1.931-5a.5.5 0 0 1 .269-.28l1.6-.687.721-2.7-6.562-5.792-8.234 5.289-7.993 3.447z"/><path d="m63.546 22.551h-31.568a.5.5 0 0 1 -.466-.68l2.054-5.325a.5.5 0 0 1 .269-.28l8.114-3.492 8.479-5.454a.5.5 0 0 1 .6.045l7.084 6.235a.5.5 0 0 1 .153.5l-.774 2.907 4.62 2.009a.5.5 0 0 1 .223.191l1.634 2.578a.5.5 0 0 1 -.422.768zm-30.84-1h29.931l-1.065-1.681-4.872-2.119a.5.5 0 0 1 -.284-.587l.8-3.023-6.565-5.775-8.235 5.29-7.994 3.444z"/><path d="m63.4 56h-52.8a.5.5 0 0 1 -.5-.5v-25.74a.5.5 0 0 1 .5-.5h52.8a.5.5 0 0 1 .5.5v25.74a.5.5 0 0 1 -.5.5zm-52.3-1h51.8v-24.74h-51.8z"/><path d="m61.44 66.21h-48.88a2.463 2.463 0 0 1 -2.46-2.46v-8.25a.5.5 0 0 1 .5-.5h52.8a.5.5 0 0 1 .5.5v8.25a2.463 2.463 0 0 1 -2.46 2.46zm-50.34-10.21v7.75a1.461 1.461 0 0 0 1.46 1.46h48.88a1.461 1.461 0 0 0 1.46-1.46v-7.75z"/></g><circle cx="21.285" cy="65.711" fill="#707583" r="5.462"/><path d="m21.285 71.673a5.962 5.962 0 1 1 5.962-5.962 5.969 5.969 0 0 1 -5.962 5.962zm0-10.924a4.962 4.962 0 1 0 4.962 4.962 4.968 4.968 0 0 0 -4.962-4.962z" fill="#323c6b"/><circle cx="21.285" cy="65.711" fill="#bbbbcd" r="2.912"/><path d="m21.285 69.123a3.412 3.412 0 1 1 3.415-3.413 3.416 3.416 0 0 1 -3.415 3.413zm0-5.824a2.412 2.412 0 1 0 2.415 2.411 2.415 2.415 0 0 0 -2.415-2.41z" fill="#323c6b"/><circle cx="52.715" cy="65.711" fill="#707583" r="5.462"/><path d="m52.715 71.673a5.962 5.962 0 1 1 5.962-5.962 5.969 5.969 0 0 1 -5.962 5.962zm0-10.924a4.962 4.962 0 1 0 4.962 4.962 4.968 4.968 0 0 0 -4.962-4.962z" fill="#323c6b"/><circle cx="52.715" cy="65.711" fill="#bbbbcd" r="2.912"/><path d="m52.715 69.123a3.412 3.412 0 1 1 3.412-3.412 3.416 3.416 0 0 1 -3.412 3.412zm0-5.824a2.412 2.412 0 1 0 2.412 2.412 2.415 2.415 0 0 0 -2.412-2.411z" fill="#323c6b"/><path d="m28.792 27.212h-10.584a.65.65 0 1 1 0-1.3h10.584a.65.65 0 1 1 0 1.3z" fill="#fff"/><path d="m15.312 27.212h-.687a.65.65 0 0 1 0-1.3h.687a.65.65 0 1 1 0 1.3z" fill="#fff"/><path d="m63.921 29.76v-7.709h1.555a1.235 1.235 0 0 1 1.235 1.235v5.238a1.235 1.235 0 0 1 -1.235 1.235z" fill="#d09865"/><path d="m65.457 30.259h-56.914a2.081 2.081 0 0 1 -2.079-2.078v-4.551a2.081 2.081 0 0 1 2.079-2.079h56.914a2.081 2.081 0 0 1 2.079 2.079v4.551a2.081 2.081 0 0 1 -2.079 2.078zm-56.914-7.708a1.08 1.08 0 0 0 -1.079 1.079v4.551a1.08 1.08 0 0 0 1.079 1.078h56.914a1.08 1.08 0 0 0 1.079-1.078v-4.551a1.08 1.08 0 0 0 -1.079-1.079z" fill="#323c6b"/></g></svg>