<svg height="512" viewBox="0 0 74 74" width="512" xmlns="http://www.w3.org/2000/svg"><g id="line_color" data-name="line color"><path d="m62.779 49.481 8.221-9.205-4.35-.434-3.57-2.507-1.559-3.809-.062-.044-5.342 9.886z" fill="#e1e6e9"/><path d="m70.996 40.275-4.347-.429-3.572-2.508-1.553-3.816-.019-.108 4.224.343 4.743 3.434.503 2.965z" fill="#e1e6e9"/><path d="m71 40.27-.03-.11-.5-2.97-2.134-1.544h-.23l.04.021.407 4.327-7.048 8.319 1.275 1.167 8.22-9.2" fill="#d5d6db"/><g fill="#323c6b"><path d="m58.3 45.374a.5.5 0 0 1 -.422-.768l4.783-7.539a.5.5 0 1 1 .844.536l-4.783 7.539a.5.5 0 0 1 -.422.232z"/><path d="m61.2 47.385a.5.5 0 0 1 -.4-.806l5.448-7.043a.5.5 0 0 1 .791.612l-5.439 7.043a.5.5 0 0 1 -.4.194z"/><path d="m62.779 49.98a.5.5 0 0 1 -.338-.131l-6.662-6.112a.5.5 0 0 1 -.1-.606l5.342-9.886a.5.5 0 0 1 .727-.171.788.788 0 0 1 .238.264l1.5 3.674 3.343 2.348 4.22.421a.5.5 0 0 1 .323.831l-8.221 9.2a.5.5 0 0 1 -.349.167zm-6.037-6.717 6 5.506 7.229-8.093-3.371-.336a.5.5 0 0 1 -.237-.088l-3.57-2.507a.5.5 0 0 1 -.176-.22l-1.2-2.922z"/><path d="m71 40.775h-.049l-4.351-.432a.5.5 0 0 1 -.238-.088l-3.572-2.507a.5.5 0 0 1 -.176-.221l-1.553-3.816a.448.448 0 0 1 -.029-.1l-.02-.108a.5.5 0 0 1 .122-.425.524.524 0 0 1 .41-.163l4.225.343a.5.5 0 0 1 .253.094l4.742 3.433a.5.5 0 0 1 .2.321l.523 3.079a.5.5 0 0 1 -.492.589zm-4.168-1.414 3.564.352-.38-2.237-4.466-3.232-3.3-.268 1.235 3.038z"/></g><path d="m11.602 46.796-8.558-8.601.062-.045 5.998-1.098 3.72-5.307 3.393 6.033z" fill="#e1e6e9"/><path d="m12.823 31.75-3.714 5.305-6.001 1.092-.108-.021 1.844-3.816 4.913-3.185 2.947.601z" fill="#e1e6e9"/><path d="m12.824 31.745-1.285 1.833 3.345 5.948-3.572 6.979.29.291 4.615-9.018z" fill="#d5d6db"/><path d="m11.475 33.518h.112l-.001-.001 1.237-1.767-.119-.024-2.947-.601-2.445 1.585v.021l.075-.07 4.102.837z" fill="#d5d6db"/><path d="m12.745 42.389a.5.5 0 0 1 -.4-.2l-3.645-4.836a.5.5 0 0 1 .8-.6l3.642 4.837a.5.5 0 0 1 -.4.8z" fill="#323c6b"/><path d="m11.6 47.3a.5.5 0 0 1 -.354-.147l-8.558-8.6a.5.5 0 0 1 .064-.76.912.912 0 0 1 .263-.128l5.797-1.065 3.6-5.138a.507.507 0 0 1 .434-.212.5.5 0 0 1 .411.254l3.394 6.033a.5.5 0 0 1 .01.473l-4.616 9.018a.5.5 0 0 1 -.368.266.513.513 0 0 1 -.077.006zm-7.56-8.812 7.431 7.468 4.18-8.166-2.873-5.107-3.265 4.656a.5.5 0 0 1 -.319.2z" fill="#323c6b"/><path d="m3.107 38.647a.5.5 0 0 1 -.1-.01l-.107-.021a.5.5 0 0 1 -.353-.708l1.844-3.815a.5.5 0 0 1 .179-.2l4.913-3.185a.5.5 0 0 1 .371-.07l3.065.624a.5.5 0 0 1 .31.777l-3.713 5.3a.5.5 0 0 1 -.319.205l-6 1.092a.508.508 0 0 1 -.09.011zm2.126-3.994-1.377 2.847 4.961-.9 3.158-4.512-2.118-.432z" fill="#323c6b"/><path d="m33.43 23.994.726-5.634-16.326 8.07 8.105 4.695" fill="#e1e6e9"/><path d="m18.287 21.418-.462 5.013 16.333-8.07-4.171-2.724z" fill="#e1e6e9"/><path d="m31.719 19.565v.079l.632-.347-.877 6.799 1.956-2.102.726-5.634z" fill="#d5d6db"/><path d="m29.987 15.637-1.917 1.017 4.171 2.724 1.917-1.017z" fill="#d5d6db"/><path d="m27.742 30.288a.5.5 0 0 1 -.375-.169l-5.076-5.75a.5.5 0 0 1 .153-.779l6.645-3.29a.5.5 0 0 1 .712.352l1.223 6.2a.5.5 0 1 1 -.98.193l-1.1-5.56-5.471 2.715 4.645 5.26a.5.5 0 0 1 -.375.831z" fill="#323c6b"/><path d="m22.669 24.538a.5.5 0 0 1 -.5-.464l-.331-4.622a.5.5 0 0 1 .277-.484l3.539-1.749a.5.5 0 0 1 .556.076l3.438 3.087a.5.5 0 0 1 -.112.82l-6.646 3.283a.5.5 0 0 1 -.221.053zm.191-4.822.254 3.544 5.316-2.626-2.636-2.368z" fill="#323c6b"/><path d="m8.715 59.137 4.518-19.324 14.198-9.705 14.973-15.245 12.392 17.314-1.549 9.206 8.777 6.067 4.351 11.687z" fill="#9297ab"/><path d="m51.792 32.512-1.549 9.206 8.778 6.067 4.225 11.351h3.129l-4.351-11.686-8.777-6.067 1.549-9.206-12.392-17.314-1.876 1.911z" fill="#84879c"/><g fill="#323c6b"><path d="m38.852 35.273a.5.5 0 0 1 -.3-.9l11.513-8.788a.5.5 0 0 1 .607.795l-11.517 8.79a.5.5 0 0 1 -.303.103z"/><path d="m42.693 42.2a.5.5 0 0 1 -.412-.783l3.039-4.427-3.05-4.885a.5.5 0 0 1 .848-.53l3.225 5.16a.5.5 0 0 1 -.012.548l-3.225 4.7a.5.5 0 0 1 -.413.217z"/><path d="m25.992 41.208a.5.5 0 0 1 -.418-.774l3.119-4.747-1.738-5.426a.5.5 0 0 1 .953-.3l1.811 5.654a.5.5 0 0 1 -.059.427l-3.25 4.946a.5.5 0 0 1 -.418.22z"/><path d="m24.438 49.123a.5.5 0 0 1 -.224-.053l-5.088-2.544a.5.5 0 0 1 -.134-.1l-6.116-6.265a.5.5 0 1 1 .715-.7l6.058 6.2 5.013 2.506a.5.5 0 0 1 -.224.947z"/><path d="m32.634 59.637a.5.5 0 0 1 -.438-.74l3.711-6.797-2.477-7.73a.5.5 0 0 1 .953-.3l2.543 7.93a.5.5 0 0 1 -.038.392l-3.815 6.981a.5.5 0 0 1 -.439.264z"/><path d="m54.256 51.034a.5.5 0 0 1 -.407-.21l-2.261-3.184a.5.5 0 0 1 -.082-.392l1.252-5.967a.5.5 0 0 1 .979.205l-1.207 5.753 2.134 3.005a.5.5 0 0 1 -.407.79z"/><path d="m8.813 62.637h-3.879a.5.5 0 0 1 -.486-.615l1.5-6.345a.5.5 0 1 1 .973.23l-1.355 5.73h3.247a.5.5 0 0 1 0 1z"/><path d="m7.121 53.354a.513.513 0 0 1 -.114-.013.5.5 0 0 1 -.372-.6l.1-.406a.5.5 0 1 1 .973.229l-.1.406a.5.5 0 0 1 -.487.384z"/><path d="m46.907 16.5a.5.5 0 0 1 -.406-.209l-.388-.542a.5.5 0 1 1 .813-.582l.388.542a.5.5 0 0 1 -.406.791z"/><path d="m53.825 26.167a.5.5 0 0 1 -.406-.209l-5.188-7.25a.5.5 0 1 1 .813-.582l5.188 7.25a.5.5 0 0 1 -.406.791z"/><path d="m66.375 59.637h-57.659a.5.5 0 0 1 -.487-.614l4.517-19.323a.5.5 0 0 1 .205-.3l14.2-9.705 14.9-15.183a.473.473 0 0 1 .4-.148.5.5 0 0 1 .367.208l12.382 17.314a.5.5 0 0 1 .087.374l-1.5 8.893 8.515 5.886a.5.5 0 0 1 .185.237l4.352 11.687a.5.5 0 0 1 -.469.674zm-57.028-1h56.308l-4.046-10.866-8.646-5.977a.5.5 0 0 1 -.209-.494l1.515-9-11.925-16.662-14.556 14.821-14.112 9.657z"/><path d="m25.936 31.625a.5.5 0 0 1 -.251-.067l-8.105-4.7a.5.5 0 0 1 .029-.881l16.326-8.07a.5.5 0 0 1 .718.512l-.727 5.634a.506.506 0 0 1 -.56.432.5.5 0 0 1 -.433-.56l.607-4.708-14.652 7.248 7.3 4.228a.5.5 0 0 1 -.251.933z"/><path d="m17.825 26.931a.5.5 0 0 1 -.5-.546l.462-5.013a.5.5 0 0 1 .276-.4l11.7-5.781a.5.5 0 0 1 .5.03l4.171 2.724a.5.5 0 0 1 -.052.867l-16.333 8.07a.5.5 0 0 1 -.224.049zm.935-5.189-.354 3.845 14.745-7.287-3.2-2.089z"/></g><path d="m52.583 56.279h-9.271a.65.65 0 1 1 0-1.3h9.271a.65.65 0 1 1 0 1.3z" fill="#fff"/><path d="m39.724 56.279a.65.65 0 0 1 -.009-1.3l.8-.011a.65.65 0 1 1 .018 1.3l-.8.011z" fill="#fff"/></g></svg>