<svg height="512" viewBox="0 0 74 74" width="512" xmlns="http://www.w3.org/2000/svg"><g id="line_color" data-name="line color"><path d="m43.691 39.128v8.372h-37.715v-24.548a2.424 2.424 0 0 1 2.424-2.424h17.337a2.424 2.424 0 0 1 2.424 2.424v12.006c0 1.339 1.085 1.745 2.424 1.745h10.68a2.424 2.424 0 0 1 2.426 2.425z" fill="#fcd462"/><path d="m41.266 36.7h-10.68c-1.339 0-2.424-.406-2.424-1.745v-12.003a2.424 2.424 0 0 0 -2.424-2.424h-17.338a2.425 2.425 0 0 0 -2.376 1.944c.063 0 .124-.019.188-.019h17.338a2.424 2.424 0 0 1 2.424 2.424v12.006c0 1.339 1.086 1.745 2.424 1.745h10.68a2.424 2.424 0 0 1 2.422 2.424v6.448h2.188v-8.372a2.424 2.424 0 0 0 -2.422-2.428z" fill="#f7be56"/><path d="m38.893 33.542h-5.933a1.408 1.408 0 0 0 -1.408 1.408v1.75h8.748v-1.751a1.408 1.408 0 0 0 -1.407-1.407z" fill="#e1e6e9"/><path d="m40.3 37.2h-8.748a.5.5 0 0 1 -.5-.5v-1.751a1.91 1.91 0 0 1 1.908-1.908h5.934a1.91 1.91 0 0 1 1.906 1.908v1.751a.5.5 0 0 1 -.5.5zm-8.249-1h7.749v-1.251a.909.909 0 0 0 -.907-.908h-5.933a.909.909 0 0 0 -.908.908z" fill="#323c6b"/><path d="m56.035 17.428 8.531 12.8a2.656 2.656 0 0 0 -.547-.052 2.873 2.873 0 0 0 -2.578 1.6l-9.141-10.86-2.023-.82-12.272 4.512.884 8.934h-5.4l-1-11.152a2 2 0 0 1 1.259-1.859l15.709-4.774z" fill="#fcd462"/><path d="m35.706 22.112 13.71-4.167v-2.176l-15.668 4.762a2 2 0 0 0 -1.259 1.859l1 11.152h1.811l-.856-9.571a2 2 0 0 1 1.262-1.859z" fill="#f7be56"/><path d="m70.24 42.122-3.313 3.785a9.463 9.463 0 0 1 -9.3 2.968 10.464 10.464 0 0 1 -6.258-4.4l-1.094-1.529 5.2.1 6.82-7.682a2.824 2.824 0 0 0 1.724.577 2.867 2.867 0 0 0 2.391-1.274l3.538 3.1a3.092 3.092 0 0 1 .292 4.355z" fill="#eeefee"/><path d="m70.131 37.964a3.069 3.069 0 0 1 -.749 2.074l-3.312 3.785a9.463 9.463 0 0 1 -9.3 2.968 10.334 10.334 0 0 1 -5.835-3.833l-.66-.012 1.094 1.529a10.463 10.463 0 0 0 6.258 4.4 9.463 9.463 0 0 0 9.3-2.968l3.313-3.785a3.082 3.082 0 0 0 -.109-4.158z" fill="#e1e6e9"/><path d="m66.9 33.053a2.827 2.827 0 0 1 -.495 1.611 2.867 2.867 0 0 1 -2.391 1.274 2.824 2.824 0 0 1 -1.724-.577 2.889 2.889 0 0 1 -1.154-2.308 2.8 2.8 0 0 1 .3-1.274 2.873 2.873 0 0 1 2.578-1.6 2.656 2.656 0 0 1 .547.052 2.879 2.879 0 0 1 2.339 2.822z" fill="#e1e6e9"/><path d="m64.02 36.439a3.305 3.305 0 0 1 -2.027-.68 3.405 3.405 0 0 1 -1.351-2.706 3.319 3.319 0 0 1 .354-1.5 3.357 3.357 0 0 1 3.023-1.876 3.117 3.117 0 0 1 .649.063 3.378 3.378 0 0 1 2.732 3.313 3.324 3.324 0 0 1 -.582 1.895 3.369 3.369 0 0 1 -2.798 1.491zm0-5.764a2.366 2.366 0 0 0 -2.13 1.325 2.315 2.315 0 0 0 -.248 1.052 2.4 2.4 0 0 0 .955 1.909 2.439 2.439 0 0 0 3.4-.576 2.339 2.339 0 0 0 .409-1.333 2.38 2.38 0 0 0 -1.932-2.334 2.162 2.162 0 0 0 -.454-.043z" fill="#323c6b"/><circle cx="64.023" cy="33.057" fill="#323c6b" r=".974" transform="matrix(.995 -.1 .1 .995 -2.994 6.592)"/><path d="m9.637 23.875h14.863v11.152h-14.863z" fill="#89c5cd"/><g fill="#323c6b"><path d="m24.5 35.527h-14.862a.5.5 0 0 1 -.5-.5v-11.152a.5.5 0 0 1 .5-.5h14.862a.5.5 0 0 1 .5.5v11.152a.5.5 0 0 1 -.5.5zm-14.362-1h13.862v-10.152h-13.862z"/><path d="m2.976 27.5a.5.5 0 0 1 -.5-.5v-.507a.5.5 0 0 1 1 0v.507a.5.5 0 0 1 -.5.5z"/><path d="m2.976 24.9a.5.5 0 0 1 -.5-.5v-1.447a5.907 5.907 0 0 1 2.116-4.531.5.5 0 1 1 .643.766 4.912 4.912 0 0 0 -1.759 3.765v1.447a.5.5 0 0 1 -.5.5z"/><path d="m61.5 52.481a.5.5 0 0 1 -.063-1 11.783 11.783 0 0 0 6.075-2.677.5.5 0 0 1 .645.765 12.775 12.775 0 0 1 -6.591 2.9.491.491 0 0 1 -.066.012z"/><path d="m58.709 52.557h-.045c-.373-.033-.746-.082-1.118-.141a.5.5 0 0 1 -.415-.573.5.5 0 0 1 .573-.415c.349.056.7.1 1.048.132a.5.5 0 0 1 -.043 1z"/><path d="m43.691 48h-37.715a.5.5 0 0 1 -.5-.5v-24.547a2.928 2.928 0 0 1 2.924-2.925h17.337a2.928 2.928 0 0 1 2.925 2.925v12.005c0 .373 0 1.245 1.924 1.245h10.681a2.928 2.928 0 0 1 2.925 2.924v8.373a.5.5 0 0 1 -.501.5zm-37.215-1h36.715v-7.873a1.927 1.927 0 0 0 -1.924-1.927h-10.681c-2.544 0-2.924-1.407-2.924-2.245v-12.002a1.927 1.927 0 0 0 -1.925-1.925h-17.337a1.927 1.927 0 0 0 -1.925 1.925z"/></g><rect fill="#9297ab" height="14.905" rx="7.452" width="43.667" x="3" y="45.165"/><path d="m46.67 52.62a7.46 7.46 0 0 1 -7.46 7.45h-28.76a7.422 7.422 0 0 1 -6.93-4.75 7.354 7.354 0 0 0 5.1 2.03h28.76a7.443 7.443 0 0 0 7.45-7.45 7.325 7.325 0 0 0 -.51-2.7 7.379 7.379 0 0 1 2.35 5.42z" fill="#84879c"/><circle cx="12.346" cy="52.617" fill="#eeefee" r="2.971"/><path d="m12.346 56.088a3.471 3.471 0 1 1 3.471-3.471 3.475 3.475 0 0 1 -3.471 3.471zm0-5.941a2.471 2.471 0 1 0 2.471 2.471 2.474 2.474 0 0 0 -2.471-2.472z" fill="#323c6b"/><circle cx="24.833" cy="52.617" fill="#eeefee" r="2.971"/><path d="m24.833 56.088a3.471 3.471 0 1 1 3.467-3.471 3.475 3.475 0 0 1 -3.467 3.471zm0-5.941a2.471 2.471 0 1 0 2.467 2.47 2.474 2.474 0 0 0 -2.467-2.471z" fill="#323c6b"/><circle cx="37.321" cy="52.617" fill="#eeefee" r="2.971"/><path d="m37.32 56.088a3.471 3.471 0 1 1 3.471-3.471 3.475 3.475 0 0 1 -3.471 3.471zm0-5.941a2.471 2.471 0 1 0 2.471 2.471 2.474 2.474 0 0 0 -2.471-2.472z" fill="#323c6b"/><path d="m38.89 34.042h-5.4a.5.5 0 0 1 -.5-.456l-1-11.152a2.5 2.5 0 0 1 1.57-2.367l15.75-4.789a.492.492 0 0 1 .269-.006l6.578 1.671a.5.5 0 0 1 .293.207l8.531 12.8a.5.5 0 0 1 0 .558.5.5 0 0 1 -.517.209 2.154 2.154 0 0 0 -.444-.042 2.366 2.366 0 0 0 -2.13 1.325.5.5 0 0 1 -.389.274.5.5 0 0 1 -.442-.175l-9.065-10.766-1.729-.7-11.724 4.311.847 8.548a.5.5 0 0 1 -.5.549zm-4.947-1h4.4l-.831-8.384a.5.5 0 0 1 .325-.519l12.263-4.512a.5.5 0 0 1 .36.006l2.022.82a.5.5 0 0 1 .2.142l8.707 10.344a3.35 3.35 0 0 1 2.224-1.239l-7.887-11.835-6.257-1.589-15.575 4.733a1.488 1.488 0 0 0 -.9 1.38z" fill="#323c6b"/><circle cx="52.537" cy="17.699" fill="#e1e6e9" r="3.498"/><g fill="#323c6b"><path d="m52.537 21.7a4 4 0 1 1 4-4 4 4 0 0 1 -4 4zm0-7a3 3 0 1 0 3 3 3 3 0 0 0 -3-3z"/><circle cx="52.537" cy="17.699" r="1.255" transform="matrix(.995 -.1 .1 .995 -1.511 5.362)"/><path d="m59.83 49.62a10.593 10.593 0 0 1 -2.312-.258 10.909 10.909 0 0 1 -6.562-4.605l-1.087-1.52a.5.5 0 0 1 .406-.791h.01l4.971.093 6.667-7.51a.5.5 0 0 1 .678-.065 2.315 2.315 0 0 0 1.42.474 2.375 2.375 0 0 0 1.979-1.052.5.5 0 0 1 .745-.1l3.537 3.1a3.6 3.6 0 0 1 .34 5.059l-3.322 3.791a9.863 9.863 0 0 1 -7.47 3.384zm-8.57-6.155.515.719a9.925 9.925 0 0 0 5.961 4.2 8.967 8.967 0 0 0 8.815-2.81l3.313-3.783a2.6 2.6 0 0 0 -.246-3.65l-3.145-2.759a3.469 3.469 0 0 1 -4.09.632l-6.533 7.362a.434.434 0 0 1 -.384.168z"/></g><path d="m22.128 47.9h-.42a.539.539 0 1 1 0-1.077h.42a.539.539 0 1 1 0 1.077z" fill="#fff"/><path d="m19.642 47.9h-7.035a.539.539 0 1 1 0-1.077h7.035a.539.539 0 1 1 0 1.077z" fill="#fff"/><path d="m39.214 60.57h-28.762a7.952 7.952 0 0 1 0-15.9h28.762a7.952 7.952 0 1 1 0 15.9zm-28.762-14.9a6.952 6.952 0 0 0 0 13.9h28.762a6.952 6.952 0 1 0 0-13.9z" fill="#323c6b"/></g></svg>