<svg id="Layer_1" enable-background="new 0 0 56 56" height="512" viewBox="0 0 56 56" width="512" xmlns="http://www.w3.org/2000/svg"><g><g fill="#edae83"><path d="m37.48 22.42c-.51 1.69-1.84 2.77-2.99 2.43-1.13-.34-1.63-1.99-1.12-3.67s1.84-2.78 2.98-2.44c1.15.34 1.64 2 1.13 3.68z"/><path d="m19.09 22.42c.51 1.69 1.84 2.77 2.99 2.43 1.13-.34 1.63-1.99 1.12-3.67s-1.84-2.78-2.98-2.44-1.64 2-1.13 3.68z"/></g><path d="m45.82 40.53v10.04c0 .79-.64 1.43-1.43 1.43h-32.78c-.79 0-1.43-.64-1.43-1.43v-10.04c0-4.08 2.91-7.59 6.93-8.34l5.92-1.1c3.29-.61 6.66-.61 9.95 0l5.92 1.1c4.01.75 6.92 4.26 6.92 8.34z" fill="#1b323a"/><path d="m32.51 24.83v6.45c0 2.49-2.02 4.51-4.51 4.51-2.49 0-4.51-2.02-4.51-4.51v-6.45z" fill="#edae83"/><path d="m38.05 14.79-1.04 4.98c-.28 1.33-1.45 2.28-2.81 2.28h-.84l-3.92-14.11h4.54l2.89 2.88c1.03 1.04 1.48 2.53 1.18 3.97z" fill="#1b323a"/><path d="m18.53 14.79 1.04 4.98c.28 1.33 1.45 2.28 2.81 2.28h.84l3.93-14.11h-4.55l-2.89 2.88c-1.04 1.04-1.48 2.53-1.18 3.97z" fill="#1b323a"/><path d="m35.8 14.8v9.34c0 1.52-.6 2.98-1.68 4.05l-1.19 1.19c-1.24 1.24-2.93 1.94-4.68 1.94-1.76 0-3.44-.7-4.68-1.94l-1.19-1.19c-1.07-1.07-1.68-2.53-1.68-4.05v-9.34c0-1.11.9-2.02 2.02-2.02h11.06c1.11 0 2.02.91 2.02 2.02z" fill="#f9bb91"/><g><path d="m39.22 15.64h-21.86c0-6.03 4.91-10.9 10.94-10.9s10.92 4.87 10.92 10.9z" fill="#fded04"/><g fill="#fc0"><path d="m39.22 15.64c0 4.79-21.86 4.79-21.86 0"/><path d="m31.01 4.48-1.04 7.27c-.03.21-.21.36-.41.36h-2.55c-.21 0-.38-.15-.41-.36l-1.04-7.27c-.03-.26.16-.48.42-.48h4.62c.25 0 .45.22.41.48z"/><path d="m37.36 8.44-4.77 4.02 3.38-5.25z"/><path d="m20.61 7.21 3.38 5.25-4.77-4.02z"/></g><path d="m17.19 11.58h22.2v3.12h-22.2z" fill="#1b323a"/><path d="m31.02 13.16c0 1.47-1.24 2.71-2.75 2.71-1.47 0-2.71-1.23-2.71-2.71 0-1.51 1.24-2.75 2.71-2.75 1.51 0 2.75 1.24 2.75 2.75z" fill="#1b323a"/><path d="m30.01 13.16c0 .93-.78 1.71-1.73 1.71-.93 0-1.71-.78-1.71-1.71 0-.95.78-1.73 1.71-1.73.95-.01 1.73.77 1.73 1.73z" fill="#c2d3e3"/></g><path d="m28 52v-4.44c3.89-3.92 7.1-8.56 7.53-16.25l5.45 1.32v19.37z" fill="#ff9100"/><path d="m28 52v-4.44c-3.89-3.92-7.1-8.56-7.53-16.25l-5.45 1.32v19.37z" fill="#ffbc00"/><path d="m38.58 32.06v19.94h-2.69v-20.59z" fill="#c2d3e3"/><path d="m20.11 31.41v20.59h-2.68v-19.94z" fill="#c2d3e3"/><path d="m35.89 42.05h2.69v7.42h-2.69z" fill="#b0c5d6"/><path d="m17.43 42.05h2.68v7.42h-2.68z" fill="#b0c5d6"/><g fill="#1b323a"><g><path d="m33.24 21.31c0 .67-.55 1.22-1.22 1.22s-1.22-.55-1.22-1.22.55-1.22 1.22-1.22 1.22.55 1.22 1.22z"/><path d="m25.78 21.31c0 .67-.55 1.22-1.22 1.22s-1.22-.55-1.22-1.22.55-1.22 1.22-1.22 1.22.55 1.22 1.22z"/></g><path d="m31.02 26.03c-.43 1.03-1.61 1.67-2.77 1.67s-2.34-.64-2.77-1.67c2 .82 3.54.84 5.54 0z"/></g></g></svg>