<svg height="128" viewBox="0 0 128 128" width="128" xmlns="http://www.w3.org/2000/svg"><g fill="#363436"><path d="m55.53 70.21a1 1 0 0 0 -1-.18l-3.72 1.37a1 1 0 0 0 -.65.86l-.39 4.74a1 1 0 0 0 .87 1l4.51.59h.12a1 1 0 0 0 .43-.1l3.73-1.76a1 1 0 0 0 .57-.91v-1.32a1 1 0 0 0 -.35-.76zm2.47 5-2.89 1.37-3.27-.43.26-3.12 2.58-1 3.32 2.97z"/><path d="m122 54.42c-1.36-10.42-29.22-15.93-36-16.75-32-3.81-40.79-2.26-45.88 1.93a10.87 10.87 0 0 0 -3.75 5.83c-.92 2.85-1.72 5.31-13 7.49-10.59 2.08-15.81 8.39-17.05 13.17-.77 3-.12 5.67 1.74 7.24s6.38 2.35 12.5 3.33c8.93 1.42 21.16 3.36 28.75 9.55s18.9 8.79 28.83 8.79h2.24a1 1 0 0 0 .24 0 1 1 0 0 0 .35-.07 52.81 52.81 0 0 0 5.7-.58c7.2-1.17 12.35-3.69 14.52-7.1 3.82-6-1.78-10.56-5.86-13.89-2.59-2.1-5-4.09-4.38-5.54.74-1.66 7.13-2.8 12.26-3.72 9.16-1.64 19.54-3.49 18.79-9.68zm-107.5 13c1.75-2.82 5.44-4.82 10.13-5.49 12.29-1.77 13.92-4.47 15.56-8.71a13.91 13.91 0 0 1 2.91-5c2.41-2.57 7.73-2.19 18.34-1.43 5.24.37 11.77.84 19.9 1.08 7.83.24 22.38 2.09 33.75 11.49a42 42 0 0 1 -5 1.41c-8.47-6.35-17.43-9.46-29-10.06-6.51-.34-12.09-.78-16.57-1.14-11.13-.88-16.71-1.32-19.73.82-2.24 1.6-2.69 3.86-3.08 5.86-.71 3.6-1.38 7-12.72 7.54-4.54.22-7.85 1.67-9.85 4.31a9.47 9.47 0 0 0 -1.84 6c-1.29-.22-2.49-.44-3.55-.68a7.23 7.23 0 0 1 .71-6.03zm53.4 24.58c2.15-1.34 5.17-3.89 5.68-7.81a4.31 4.31 0 0 1 3-3.92 6.9 6.9 0 0 1 2.18-.27l-.54 3.16c-.22 1.82.7 3.29 1.51 4.6 1.12 1.8 2 3.13.45 5.23a57.73 57.73 0 0 1 -12.28-.99zm15.6.71-1 .08c1.12-2.54-.1-4.51-1.12-6.15-.73-1.17-1.36-2.18-1.23-3.25l.7-4.13c.38.62.81 1.2 1.23 1.78a11.77 11.77 0 0 1 2.8 6.18 7.33 7.33 0 0 1 -1.38 5.51zm2.85-.36h-.27a9.88 9.88 0 0 0 .83-5.35c-.29-3.19-1.82-5.27-3.16-7.11s-2.23-3.07-2.11-5l.18-1.09a4.6 4.6 0 0 1 .13-.5c.43-1.3 2.54-1.93 6.4-1.93l-.49 3.37c-.66 2 1.43 3.91 3.63 5.89 3.57 3.22 5.93 5.73 3.7 8.76a1.14 1.14 0 0 0 -.16.38 31.46 31.46 0 0 1 -8.68 2.6zm7.71-17.46c4.86 4 8.1 7.09 5.44 11.27a7.63 7.63 0 0 1 -1.5 1.7c.57-3.5-2.68-6.43-5.2-8.69-1.49-1.35-3.35-3-3-3.82a.8.8 0 0 0 0-.21l.53-3.57a31.91 31.91 0 0 0 3.73 3.34zm-4.94-7.89a4.34 4.34 0 0 0 -.21.64s0 0 0 .08l-.25 1.65c-3.62 0-7.62.4-8.59 3.3a8.53 8.53 0 0 0 -.42 2.12l-.56 3.21a8 8 0 0 0 -5.09 1.41 6.49 6.49 0 0 0 -2.41 4.59c-.59 4.84-6.59 7.3-6.59 7.32h-.06a36.46 36.46 0 0 1 -14.33-6.71c-7.3-5.94-18.36-8.12-27.2-9.57.2-.65.48-1.53 12.47-2.58 8.3-.73 8.92-2.08 10-7.1.26-1.18.54-2.5 1-4.12.79-2.74 11.74-1.5 19.78-.49l-.54.69a.88.88 0 0 0 -.17.35l-.75 2.6a1 1 0 0 0 .17.88 1 1 0 0 0 .79.39h4.55l2.74 1.71a1 1 0 0 0 .53.15.82.82 0 0 0 .22 0l2.8-.63a1 1 0 0 0 .75-.76l.87-3.85a59.6 59.6 0 0 1 12.67 2.72 4.4 4.4 0 0 0 -2.17 2zm-21.34-4.44 3.22-4.06 3.32-.32 2.39 3.39-.79 3.51-1.78.42-2.62-1.64a1 1 0 0 0 -.52-.16h-3.55zm35.08-.43c-3.56.64-6.49 1.19-8.75 1.84a58.89 58.89 0 0 0 -15.93-3.75l-2.59-3.67a1 1 0 0 0 -.91-.42l-4.33.42a1 1 0 0 0 -.69.38l-1.6 2c-13.2-1.68-21.93-2.45-23.15 1.76-.48 1.69-.79 3.11-1 4.26-.93 4.34-1.05 4.9-8.22 5.52-12.76 1.12-13.61 2.09-14.2 4 0 .09-.06.18-.09.27l-.5-.08-1.58-.25a7.39 7.39 0 0 1 1.41-5.16c1.62-2.15 4.43-3.33 8.35-3.52 12.92-.6 13.76-5.13 14.55-9.13.37-1.87.69-3.48 2.28-4.62 2.42-1.72 8.45-1.25 18.41-.46 4.5.36 10.09.8 16.63 1.15 10.66.55 18.71 3.15 26.49 8.61-1.54.31-3.09.59-4.58.85zm14.25-3.7c-11.93-10.36-27.48-12.35-35.75-12.6-8.09-.24-14.59-.71-19.82-1.08-11.24-.75-16.88-1.21-19.94 2.07a15.71 15.71 0 0 0 -3.32 5.65c-1.29 3.34-2.22 5.76-14 7.45-5.35.77-9.45 3-11.54 6.42a9.27 9.27 0 0 0 -1.24 6.5 6.64 6.64 0 0 1 -2.17-1c-1.28-1.08-1.68-3-1.1-5.21 1.1-4.22 5.82-9.81 15.53-11.7 12.41-2.42 13.42-5.54 14.49-8.84a9 9 0 0 1 3.11-4.9c2.72-2.23 6.9-3.65 16.39-3.65 6.45 0 15.37.66 27.94 2.16a103.85 103.85 0 0 1 20.31 4.88c8.55 3.08 13.5 6.67 13.94 10.09.23 1.55-.94 2.77-2.83 3.76z"/></g></svg>