<svg id="Layer_1" enable-background="new 0 0 56 56" height="512" viewBox="0 0 56 56" width="512" xmlns="http://www.w3.org/2000/svg"><g><g><path d="m29.06 23.85.77-.13.14-.52-.3-.59-.57-.07-.63.19v.71z" fill="#12262b"/><path d="m28.96 23.61.62-.11.12-.42-.25-.49-.46-.05-.52.16v.58z" fill="#1b323a"/><path d="m28.6 22.75c.04.07.08.15.11.22.04-.11.09-.21.13-.32.12 0 .23.01.35.01-.11.04-.22.09-.32.13.05.09.1.19.14.29 0-.1.01-.19.01-.29.06 0 .12.01.18-.02s.1-.08.1-.14c.05.11.1.22.15.33 0-.07.01-.13.01-.2.05.11.09.23.14.34-.12 0-.23 0-.35 0 .02-.04.02-.09.01-.14-.05.08-.1.16-.16.23.1.02.2.04.29.05-.08.04-.15.11-.21.18-.06-.07-.11-.15-.16-.23-.08.05-.17.1-.26.13 0-.07-.02-.14-.04-.21-.06.02-.12.04-.18.07 0-.13.04-.28.06-.43z" fill="#fff" opacity=".1"/></g><g><path d="m30.05 26.3.77-.12.13-.52-.3-.6-.57-.06-.63.19v.71z" fill="#12262b"/><path d="m29.94 26.06.62-.1.12-.42-.25-.49-.46-.05-.52.15v.58z" fill="#1b323a"/><path d="m29.59 25.21c.04.07.08.15.11.22.04-.11.09-.21.13-.32.12 0 .23.01.35.01-.11.04-.22.09-.32.13.05.09.1.19.14.29 0-.1.01-.19.01-.29.06 0 .12.01.18-.02s.1-.08.1-.14c.05.11.1.22.15.33 0-.07.01-.13.01-.2.05.11.09.23.14.34-.12 0-.23 0-.35 0 .02-.04.02-.09.01-.14-.05.08-.1.16-.16.23.1.02.2.04.29.05-.08.04-.15.11-.21.18-.06-.07-.11-.15-.16-.23-.08.05-.17.1-.26.13 0-.07-.02-.14-.04-.21-.06.02-.12.04-.18.07-.01-.13.03-.28.06-.43z" fill="#fff" opacity=".1"/></g><g><path d="m25.33 27.67.77-.13.13-.52-.3-.59-.57-.07-.63.2v.7z" fill="#12262b"/><path d="m25.22 27.43.63-.1.11-.43-.25-.48-.46-.06-.52.16v.58z" fill="#1b323a"/><path d="m24.87 26.57c.04.07.08.15.11.22.04-.11.09-.21.13-.32.12 0 .23.01.35.01-.11.04-.22.09-.32.13.05.09.1.19.14.29 0-.1.01-.19.01-.29.06 0 .12.01.18-.02.06-.02.1-.08.1-.14l.15.33c0-.07.01-.13.01-.2.05.11.09.23.14.34-.12 0-.23 0-.35 0 .02-.04.02-.09.01-.14-.05.08-.1.16-.16.23.1.02.2.04.29.05-.08.04-.15.11-.21.18-.06-.07-.11-.15-.16-.23-.08.05-.17.1-.26.13 0-.07-.02-.14-.04-.21-.06.02-.12.04-.18.07-.01-.12.03-.28.06-.43z" fill="#fff" opacity=".1"/></g><g><path d="m20.25 27.52.77-.13.14-.52-.31-.6-.56-.06-.63.19v.71z" fill="#12262b"/><path d="m20.14 27.28.63-.11.11-.42-.25-.49-.46-.05-.51.16v.58z" fill="#1b323a"/><path d="m19.79 26.42c.04.07.08.15.11.22.04-.11.09-.21.13-.32.12 0 .23.01.35.01-.11.04-.22.09-.32.13.05.09.1.19.14.29 0-.1.01-.19.01-.29.06 0 .12.01.18-.02.06-.02.1-.08.1-.14l.15.33c0-.07.01-.13.01-.2.05.11.09.23.14.34-.12 0-.23 0-.35 0 .02-.04.02-.09.01-.14-.05.08-.1.16-.16.23.1.02.2.04.29.05-.08.04-.15.11-.21.18-.06-.07-.11-.15-.16-.23-.08.05-.17.1-.26.13 0-.07-.02-.14-.04-.21-.06.02-.12.04-.18.07-.01-.13.03-.28.06-.43z" fill="#fff" opacity=".1"/></g><g><path d="m20.4 23.3.77-.13.14-.52-.3-.59-.57-.07-.63.19v.71z" fill="#12262b"/><path d="m20.29 23.06.63-.1.11-.43-.25-.49-.46-.05-.51.16v.58z" fill="#1b323a"/><path d="m19.94 22.2c.04.07.08.15.11.22.04-.11.09-.21.13-.32.12 0 .23.01.35.01-.11.04-.22.09-.32.13.05.09.1.19.14.29 0-.1.01-.19.01-.29.06 0 .12.01.18-.02.06-.02.1-.08.1-.14l.15.33c0-.07.01-.13.01-.2.05.11.09.23.14.34-.12 0-.23 0-.35 0 .02-.04.02-.09.01-.14-.05.08-.1.16-.16.23.1.02.2.04.29.05-.08.04-.15.11-.21.18-.06-.07-.11-.15-.16-.23-.08.05-.17.1-.26.13 0-.07-.02-.14-.04-.21-.06.02-.12.04-.18.07 0-.13.04-.28.06-.43z" fill="#fff" opacity=".1"/></g><g><path d="m27.74 36.58.77-.13.13-.52-.3-.6-.57-.06-.63.19v.71z" fill="#12262b"/><path d="m27.63 36.34.62-.11.12-.42-.25-.49-.46-.05-.52.16v.58z" fill="#1b323a"/><path d="m27.28 35.48c.04.07.08.15.11.22.04-.11.09-.21.13-.32.12 0 .23.01.35.01-.11.04-.22.09-.32.13.05.09.1.19.14.29 0-.1.01-.19.01-.29.06 0 .12.01.18-.02.06-.02.1-.08.1-.14.05.11.1.22.15.33 0-.07.01-.13.01-.2.05.11.09.23.14.34-.12 0-.23 0-.35 0 .02-.04.02-.09.01-.14-.05.08-.1.16-.16.23.1.02.2.04.29.05-.08.04-.15.11-.21.18-.06-.07-.11-.15-.16-.23-.08.05-.17.1-.26.13 0-.07-.02-.14-.04-.21-.06.02-.12.04-.18.07-.01-.13.03-.28.06-.43z" fill="#fff" opacity=".1"/></g><g><path d="m30.52 32.86.77-.12.14-.52-.3-.6-.57-.06-.63.19v.71z" fill="#12262b"/><path d="m30.41 32.62.63-.1.11-.43-.25-.48-.46-.05-.51.15v.58z" fill="#1b323a"/><path d="m30.06 31.77c.04.07.08.15.11.22.04-.11.09-.21.13-.32.12 0 .23.01.35.01-.11.04-.22.09-.32.13.05.09.1.19.14.29 0-.1.01-.19.01-.29.06 0 .12.01.18-.02s.1-.08.1-.14c.05.11.1.22.15.33 0-.07.01-.13.01-.2.05.11.09.23.14.34-.12 0-.23 0-.35 0 .02-.04.02-.09.01-.14-.05.08-.1.16-.16.23.1.02.2.04.29.05-.08.04-.15.11-.21.18-.06-.07-.11-.15-.16-.23-.08.05-.17.1-.26.13 0-.07-.02-.14-.04-.21-.06.02-.12.04-.18.07 0-.13.04-.28.06-.43z" fill="#fff" opacity=".1"/></g><g><path d="m33.71 29.42.77-.13.14-.52-.3-.6-.57-.06-.63.19v.71z" fill="#12262b"/><path d="m33.6 29.18.63-.11.11-.42-.24-.49-.47-.05-.51.16v.57z" fill="#1b323a"/><path d="m33.25 28.32c.04.07.08.15.11.22.04-.11.09-.21.13-.32.12 0 .23.01.35.01-.11.04-.22.09-.32.13.05.09.1.19.14.29 0-.1.01-.19.01-.29.06 0 .12.01.18-.02.06-.02.1-.08.1-.14.05.11.1.22.15.33 0-.07.01-.13.01-.2.05.11.09.23.14.34-.12 0-.23 0-.35 0 .02-.04.02-.09.01-.14-.05.08-.1.16-.16.23.1.02.2.04.29.05-.08.04-.15.11-.21.18-.06-.07-.11-.15-.16-.23-.08.05-.17.1-.26.13 0-.07-.02-.14-.04-.21-.06.02-.12.04-.18.07 0-.13.04-.28.06-.43z" fill="#fff" opacity=".1"/></g><g><path d="m20.02 35.43.77-.12.14-.52-.3-.6-.57-.06-.63.19v.71z" fill="#12262b"/><path d="m19.91 35.19.63-.1.11-.42-.24-.49-.47-.05-.51.15v.58z" fill="#1b323a"/><path d="m19.56 34.34c.04.07.08.15.11.22.04-.11.09-.21.13-.32.12 0 .23.01.35.01-.11.04-.22.09-.32.13.05.09.1.19.14.29 0-.1.01-.19.01-.29.06 0 .12.01.18-.02.06-.02.1-.08.1-.14.05.11.1.22.15.33 0-.07.01-.13.01-.2.05.11.09.23.14.34-.12 0-.23 0-.35 0 .02-.04.02-.09.01-.14-.05.08-.1.16-.16.23.1.02.2.04.29.05-.08.04-.15.11-.21.18-.06-.07-.11-.15-.16-.23-.08.05-.17.1-.26.13 0-.07-.02-.14-.04-.21-.06.02-.12.04-.18.07 0-.13.04-.28.06-.43z" fill="#fff" opacity=".1"/></g><g><path d="m29.05 29.17.77-.12.14-.53-.3-.59-.57-.07-.63.2v.71z" fill="#12262b"/><path d="m28.94 28.93.63-.1.11-.43-.24-.48-.47-.06-.51.16v.58z" fill="#1b323a"/><path d="m28.59 28.08c.04.07.08.15.11.22.04-.11.09-.21.13-.32.12 0 .23.01.35.01-.11.04-.22.09-.32.13.05.09.1.19.14.29 0-.1.01-.19.01-.29.06 0 .12.01.18-.02.06-.02.1-.08.1-.14.05.11.1.22.15.33 0-.07.01-.13.01-.2.05.11.09.23.14.34-.12 0-.23 0-.35 0 .02-.04.02-.09.01-.14-.05.08-.1.16-.16.23.1.02.2.04.29.05-.08.04-.15.11-.21.18-.06-.07-.11-.15-.16-.23-.08.05-.17.1-.26.13 0-.07-.02-.14-.04-.21-.06.02-.12.04-.18.07 0-.13.04-.29.06-.43z" fill="#fff" opacity=".1"/></g><g><path d="m27.2 25.54.77-.13.14-.52-.3-.6-.57-.06-.63.19v.71z" fill="#12262b"/><path d="m27.09 25.3.63-.11.11-.42-.24-.49-.47-.05-.51.16v.58z" fill="#1b323a"/><path d="m26.74 24.44c.04.07.08.15.11.22.04-.11.09-.21.13-.32.12 0 .23.01.35.01-.11.04-.22.09-.32.13.05.09.1.19.14.29 0-.1.01-.19.01-.29.06 0 .12.01.18-.02.06-.02.1-.08.1-.14.05.11.1.22.15.33 0-.07.01-.13.01-.2.05.11.09.23.14.34-.12 0-.23 0-.35 0 .02-.04.02-.09.01-.14-.05.08-.1.16-.16.23.1.02.2.04.29.05-.08.04-.15.11-.21.18-.06-.07-.11-.15-.16-.23-.08.05-.17.1-.26.13 0-.07-.02-.14-.04-.21-.06.02-.12.04-.18.07 0-.13.04-.28.06-.43z" fill="#fff" opacity=".1"/></g><g><path d="m22.55 30.71.77-.13.14-.52-.3-.59-.57-.07-.63.19v.71z" fill="#12262b"/><path d="m22.44 30.47.63-.1.11-.43-.24-.49-.46-.05-.52.16v.58z" fill="#1b323a"/><path d="m22.09 29.61c.04.07.08.15.11.22.04-.11.09-.21.13-.32.12 0 .23.01.35.01-.11.04-.22.09-.32.13.05.09.1.19.14.29 0-.1.01-.19.01-.29.06 0 .12.01.18-.02s.1-.08.1-.14l.15.33c0-.07.01-.13.01-.2.05.11.09.23.14.34-.12 0-.23 0-.35 0 .02-.04.02-.09.01-.14-.05.08-.1.16-.16.23.1.02.2.04.29.05-.08.04-.15.11-.21.18-.06-.07-.11-.15-.16-.23-.08.05-.17.1-.26.13 0-.07-.02-.14-.04-.21-.06.02-.12.04-.18.07 0-.13.04-.28.06-.43z" fill="#fff" opacity=".1"/></g><g><path d="m26.45 32.71.77-.13.14-.52-.3-.59-.57-.07-.63.2v.7z" fill="#12262b"/><path d="m26.34 32.47.63-.1.11-.43-.24-.48-.47-.06-.51.16v.58z" fill="#1b323a"/><path d="m25.99 31.62c.04.07.08.15.11.22.04-.11.09-.21.13-.32.12 0 .23.01.35.01-.11.04-.22.09-.32.13.05.09.1.19.14.29 0-.1.01-.19.01-.29.06 0 .12.01.18-.02s.1-.08.1-.14l.15.33c0-.07.01-.13.01-.2.05.11.09.23.14.34-.12 0-.23 0-.35 0 .02-.04.02-.09.01-.14-.05.08-.1.16-.16.23.1.02.2.04.29.05-.08.04-.15.11-.21.18-.06-.07-.11-.15-.16-.23-.08.05-.17.1-.26.13 0-.07-.02-.14-.04-.21-.06.02-.12.04-.18.07 0-.13.04-.29.06-.43z" fill="#fff" opacity=".1"/></g><g><path d="m32.62 36.33.77-.13.13-.52-.3-.6-.57-.06-.63.19v.71z" fill="#12262b"/><path d="m32.51 36.09.63-.11.11-.42-.25-.49-.46-.05-.52.16v.58z" fill="#1b323a"/><path d="m32.16 35.23c.04.07.08.15.11.22.04-.11.09-.21.13-.32.12 0 .23.01.35.01-.11.04-.22.09-.32.13.05.09.1.19.14.29 0-.1.01-.19.01-.29.06 0 .12.01.18-.02.06-.02.1-.08.1-.14.05.11.1.22.15.33 0-.07.01-.13.01-.2.05.11.09.23.14.34-.12 0-.23 0-.35 0 .02-.04.02-.09.01-.14-.05.08-.1.16-.16.23.1.02.2.04.29.05-.08.04-.15.11-.21.18-.06-.07-.11-.15-.16-.23-.08.05-.17.1-.26.13 0-.07-.02-.14-.04-.21-.06.02-.12.04-.18.07-.01-.13.03-.28.06-.43z" fill="#fff" opacity=".1"/></g><g><path d="m33.09 24.5.77-.12.14-.53-.3-.59-.57-.07-.63.2v.71z" fill="#12262b"/><path d="m32.98 24.26.63-.1.11-.43-.24-.48-.47-.06-.51.16v.58z" fill="#1b323a"/><path d="m32.63 23.41c.04.07.08.15.11.22.04-.11.09-.21.13-.32.12 0 .23.01.35.01-.11.04-.22.09-.32.13.05.09.1.19.14.29 0-.1.01-.19.01-.29.06 0 .12.01.18-.02.06-.02.1-.08.1-.14.05.11.1.22.15.33 0-.07.01-.13.01-.2.05.11.09.23.14.34-.12 0-.23 0-.35 0 .02-.04.02-.09.01-.14-.05.08-.1.16-.16.23.1.02.2.04.29.05-.08.04-.15.11-.21.18-.06-.07-.11-.15-.16-.23-.08.05-.17.1-.26.13 0-.07-.02-.14-.04-.21-.06.02-.12.04-.18.07 0-.13.04-.29.06-.43z" fill="#fff" opacity=".1"/></g><g><path d="m23.68 24.26.77-.12.13-.53-.3-.59-.57-.07-.63.2v.71z" fill="#12262b"/><path d="m23.57 24.02.63-.1.11-.43-.25-.48-.46-.06-.52.16v.58z" fill="#1b323a"/><path d="m23.22 23.17c.04.07.08.15.11.22.04-.11.09-.21.13-.32.12 0 .23.01.35.01-.11.04-.22.09-.32.13.05.09.1.19.14.29 0-.1.01-.19.01-.29.06 0 .12.01.18-.02.06-.02.1-.08.1-.14.05.11.1.22.15.33 0-.07.01-.13.01-.2.05.11.09.23.14.34-.12 0-.23 0-.35 0 .02-.04.02-.09.01-.14-.05.08-.1.16-.16.23.1.02.2.04.29.05-.08.04-.15.11-.21.18-.06-.07-.11-.15-.16-.23-.08.05-.17.1-.26.13 0-.07-.02-.14-.04-.21-.06.02-.12.04-.18.07-.01-.13.03-.29.06-.43z" fill="#fff" opacity=".1"/></g><g><path d="m8.2 10.37 3.12 7.43c1.04 2.71 7.46 5.05 16.67 5.05s15.64-2.34 16.67-5.05l3.12-7.43z" fill="#9db4c4"/><path d="m49.03 10.37v1.05c0 3.51-9.42 6.38-21.04 6.38-11.61 0-21.03-2.87-21.03-6.38v-1.05z" fill="#b0c5d6"/><path d="m49.03 10.37c0 3.52-9.42 6.38-21.04 6.38-11.61 0-21.03-2.86-21.03-6.38s9.43-6.37 21.03-6.37c11.62 0 21.04 2.85 21.04 6.37z" fill="#c2d3e3"/><path d="m27.99 15.69c-12.26 0-19.78-3.1-19.78-5.33 0-2.51 8.46-5.31 19.78-5.31 11.33 0 19.79 2.8 19.79 5.31.01 2.23-7.52 5.33-19.79 5.33z" fill="#b0c5d6"/><path d="m43.63 13.49c-3.42 1.23-8.79 2.2-15.64 2.2-6.84 0-12.22-.97-15.62-2.2.51-1.92 7.03-3.96 15.62-3.96 8.61 0 15.13 2.04 15.64 3.96z" fill="#9db4c4"/><path d="m34.81 13.67c.54-.05 1.09.06 1.52.38.12.09.24.23.23.4-.01.21-.22.35-.4.43-.42.18-.88.23-1.31.18s-.85-.2-1.23-.4c-.12-.06-.34-.2-.32-.38s.3-.25.43-.31c.34-.16.71-.27 1.08-.3z" fill="#1b323a"/><path d="m22.74 11.35c-.06-1.25.92-2.41 2.11-2.79 1.19-.39 2.52-.11 3.63.48.21-.69.47-1.43 1.08-1.81.6-.39 1.63-.13 1.7.58-.1-.92 1.03-1.58 1.93-1.38s1.57.94 2.18 1.64 1.27 1.44 2.17 1.65c.57.13 1.15.04 1.73 0s1.2 0 1.67.35.65 1.11.24 1.52c-.3-.17-.65.2-.67.55s.13.69.1 1.03c-.06.77-.99 1.18-1.76 1.08s-1.45-.52-2.19-.72c-2.62-.7-5.41 1.44-8 .65-.92-.28-1.71-.91-2.65-1.1-1.02-.21-2.06.12-3.1.24-.87.1-3-.06-2.86-1.37.12-1 2.64-1.6 2.69-.6z" fill="#1b323a"/><g fill="#0a1719"><path d="m23.75 11.75c.1-.56.54-1.06 1.12-1.22.57-.19 1.19.03 1.66.34.46.32 1 .51 1.56.49.56-.01 1.12-.13 1.67-.25-.54.18-1.09.34-1.67.36-.57.04-1.17-.14-1.65-.46-.46-.32-1-.53-1.55-.37-.52.13-.97.57-1.14 1.11z"/><path d="m29.14 12.26c.72.05 1.44.05 2.13-.1.71-.1 1.38-.37 2.03-.67-.59.42-1.29.67-2 .83-.72.1-1.46.13-2.16-.06z"/><path d="m29.09 10.02c.21-.62.82-1.01 1.41-1.22.62-.16 1.26-.18 1.89-.12-.63.07-1.26.06-1.84.27-.59.16-1.13.53-1.46 1.07z"/><path d="m34.15 9.55c.37.29.74.58 1.16.77.4.24.84.39 1.28.54-.48-.02-.93-.2-1.36-.4-.4-.25-.8-.52-1.08-.91z"/><path d="m37.91 13.11c.31.06.61-.04.82-.24.25-.17.39-.45.6-.69-.09.3-.26.58-.49.81-.26.18-.65.31-.93.12z"/><path d="m34.89 12.33c.24-.35.63-.56 1.04-.67s.83-.12 1.25-.13c.81.04 1.68.04 2.35-.48-.28.31-.69.48-1.1.56s-.83.08-1.25.08c-.41-.01-.82-.02-1.22.07-.4.1-.79.27-1.07.57z"/></g><path d="m25.64 13.39c-.7-.12-1.41.08-2.09.29-.68.2-1.39.41-2.09.31-.98-.14-1.81-.87-2.8-.93-.1-.01-.2 0-.28.04-.14.08-.19.28-.13.44.05.16.18.28.31.38 1.06.83 2.52.87 3.86.78s2.74-.25 3.98.27c.21.09.68.29.8-.05.07-.18-.15-.47-.24-.62-.29-.49-.76-.82-1.32-.91z" fill="#1b323a"/><path d="m24.35 12.91c-.97 1.19-2.74 1.65-4.17 1.07-.54-.21-1-.54-1.51-.8-.52-.25-1.1-.43-1.65-.32-.46.09-.86.39-1.27.64-.4.24-.85.47-1.32.42s-.92-.51-.8-.96c.12-.49.73-.7 1.13-.88.55-.25 1.11-.47 1.68-.65.5-.17 1.01-.31 1.52-.42.23-.05.46-.11.69-.15.12-.02.23-.04.35-.06.11-.02.2-.03.29-.09.07-.04.13-.1.2-.12.11-.04.23-.03.34-.01.28.07.54.23.79.36.13.07.26.13.4.17.4.12.84.07 1.24.12.6.06 1.19.19 1.75.39.22.08.46.19.57.4.15.3-.02.64-.23.89z" fill="#1b323a"/><path d="m30.54 15.4c.06.07.12.16.18.24-.88.03-1.78.05-2.72.05-1.9 0-3.68-.07-5.34-.21.08-.55.31-1.12.47-1.51.28-.64.8-1.23 1.48-1.43.91-.28 1.86.15 2.71.56 1.19.59 2.44 1.21 3.22 2.3z" fill="#1b323a"/><path d="m38.36 14.84c-1.43.26-3.03.47-4.75.62.12-.08.23-.17.34-.25.38-.31.75-.65 1.19-.83.81-.34 1.73-.08 2.56.17.24.06.48.14.66.29z" fill="#1b323a"/><path d="m24.54 14.98c.99-.84 2.47-1.07 3.66-.58-.63-.13-1.27-.19-1.89-.06-.62.07-1.21.32-1.77.64z" fill="#0a1719"/><path d="m23.87 13.99c-.32-.44-.86-.65-1.38-.62-.53-.03-1.04.18-1.57.31.48-.25 1.01-.43 1.57-.47.55.02 1.17.25 1.38.78z" fill="#0a1719"/><path d="m18.96 11.98c.37.14.74.26 1.12.25.38.04.76-.04 1.14-.15-.33.23-.74.3-1.14.31-.4-.05-.81-.15-1.12-.41z" fill="#0a1719"/><path d="m14.73 12.93c.08-.14.23-.24.39-.27.16-.04.32-.02.47-.03.32.04.61.08.9-.05-.23.26-.61.2-.9.21-.3-.06-.6-.06-.86.14z" fill="#0a1719"/><g fill="#fded04"><path d="m29.18 14.36c0 .27-.31.49-.71.49-.39 0-.71-.22-.71-.49s.32-.49.71-.49c.4 0 .71.23.71.49z"/><path d="m20.76 12.18c0 .27-.31.49-.71.49-.39 0-.71-.22-.71-.49s.32-.49.71-.49c.4 0 .71.23.71.49z"/><path d="m34 8.14c0 .27-.31.49-.71.49-.39 0-.71-.22-.71-.49s.32-.49.71-.49c.4 0 .71.22.71.49z"/><path d="m37.27 12.69c0 .27-.31.49-.71.49-.39 0-.71-.22-.71-.49s.32-.49.71-.49c.4 0 .71.22.71.49z"/><path d="m32.37 14.67c0 .17-.19.31-.44.31-.24 0-.44-.14-.44-.31s.2-.31.44-.31c.25 0 .44.14.44.31z"/><path d="m23.97 14.75c0 .17-.19.31-.44.31-.24 0-.44-.14-.44-.31s.2-.31.44-.31c.25.01.44.15.44.31z"/><path d="m26.69 9.33c0 .17-.19.31-.44.31s-.45-.14-.45-.31.2-.31.44-.31c.25.01.45.15.45.31z"/><path d="m24.76 12.33c0 .17-.19.31-.44.31-.24 0-.44-.14-.44-.31s.2-.31.44-.31c.25.01.44.15.44.31z"/><path d="m28.09 12.33c0 .17-.19.31-.44.31-.24 0-.44-.14-.44-.31s.2-.31.44-.31c.25.01.44.15.44.31z"/><path d="m32.58 10.2c0 .17-.19.31-.44.31-.24 0-.44-.14-.44-.31s.2-.31.44-.31c.24.01.44.15.44.31z"/><path d="m32.13 12.93c0 .17-.19.31-.44.31-.24 0-.44-.14-.44-.31s.2-.31.44-.31c.25 0 .44.14.44.31z"/><path d="m16.06 12.58c0 .17-.19.31-.44.31-.24 0-.44-.14-.44-.31s.2-.31.44-.31c.24.01.44.15.44.31z"/><path d="m40.41 10.51c0 .17-.19.31-.44.31-.24 0-.44-.14-.44-.31s.2-.31.44-.31c.25 0 .44.14.44.31z"/><path d="m30.42 7.84c0 .17-.19.31-.44.31-.24 0-.44-.14-.44-.31s.2-.31.44-.31.44.14.44.31z"/><path d="m19.85 14.45c0 .17-.19.31-.44.31-.24 0-.44-.14-.44-.31s.2-.31.44-.31c.25 0 .44.14.44.31z"/></g></g><g><g><path d="m50.69 52c1.14 0 1.74-1.36.96-2.2-1.11-1.19-2.25-2.38-3.43-3.56-.35-.35-1.16-.36-1.54-.02-.92.83-1.37 1.8-1.27 2.75-1.69-2.64-3.54-5.26-5.58-7.84-.66-.83-2.59-.8-3.14.09-.09 0-.1 0-.19.01-.86-1.54-2.38-2.98-4.43-4.2-.61-.37-1.6-.34-2.18.04-.6.39-1.19.78-1.79 1.18-1.01-1.05-2.02-2.08-3.04-3.12-.33-.34-1.11-.36-1.48-.04-2.98 2.53-5.2 5.28-6.54 8.15-.16-.27-.43-.53-.79-.75-.71-.44-1.91-.33-2.46.2-1.89 1.81-3.38 3.73-4.42 5.71-.13.01-.11.01-.23.01-.82-1.04-3.09-1.01-3.9-.03-.49.59-.87 1.21-1.13 1.84-.36.85.29 1.78 1.21 1.78z" fill="#1b323a"/><g fill="#fff"><path d="m41.23 52c-2.16-1.45-4.39-2.88-6.82-4.22 2.59.59 5.44.9 8.24 1.12-3.16-1.09-5.83-2.54-7.76-4.22 1.3.72 2.87 1.32 4.62 1.76-2.87-2.69-5.63-5.42-8.24-8.17-1.13 1.42-3.71 2.41-6.17 3.32-.71-.66-1.61-1.29-2.34-1.96-.84 3.38-2.19 6.72-3.98 10-1.92-2.01-3.58-4.11-4.8-6.25-.86 2.46-2.72 4.84-5.39 6.95-.51-.49-1.04-.98-1.57-1.47.03 1.06-.32 2.11-.94 3.13h35.15z" opacity=".1"/><path d="m7.86 52c.01-.26.05-.51.03-.77-.02-.45-.07-.91.29-1.29.31-.32.84-.51 1.35-.68 2.48-.85 4.93-1.69 7.38-2.54-.49-.46-1.41-.7-2.28-.61.6-.21 1.1-.55 1.39-.93-1.06-.06-2.12-.11-3.2-.17 1.15-.85 2.28-1.68 3.4-2.53 0 0-.01-.01-.01-.01-.71-.43-1.89-.31-2.43.21-1.89 1.81-3.37 3.72-4.41 5.69-.14.01-.12.01-.27.01-.83-1.02-3.08-.98-3.88-.01-.49.59-.87 1.21-1.13 1.84-.34.86.31 1.79 1.23 1.79z" opacity=".1"/><path d="m27.82 37.98c-.71.61-1.83 1.04-3.03 1.01-1.14-.02-2.36-.39-3.43-.09-.48.14-.86.41-1.21.68-.62.47-1.26.93-1.88 1.39 1.32-2.05 3.1-4.03 5.29-5.88.37-.32 1.15-.29 1.48.04.94.95 1.86 1.89 2.78 2.85z" opacity=".1"/><path d="m34.45 38.77c-1.44-.66-2.96-1.21-4.57-1.69 0 0 .01 0 .01-.01.6-.38 1.56-.4 2.17-.04.91.54 1.72 1.12 2.39 1.74z" opacity=".1"/><path d="m18.65 52c0-.12-.05-.24-.04-.36.2-2.25 3.12-4.24 6.74-5.54 3.34-1.2 7.25-1.89 11.14-2.54-.88-.87-1.77-1.74-2.63-2.62-.91.26-1.83.45-2.81.55-.6-.57-1.17-1.12-1.75-1.69-.35-.32-.68-.66-1.02-.98-1.61.49-3.07 1.11-4.31 1.84-.69.4-1.33.85-1.88 1.31-1.13.95-1.94 1.98-2.32 3.07-.29-.73-.55-1.47-.84-2.2-.75 1.56-1.44 3.14-2.01 4.72-.55 1.47-1 2.95-1.4 4.44z" opacity=".1"/><path d="m24.73 34.82 1.99 2.03" opacity=".1"/><path d="m48.22 46.27c-1.46 1.88-2.7 3.8-3.83 5.73h-8.56c-.04-.12-.06-.23-.12-.34-.77-1.76-2.08-3.43-2.96-5.17-1.39-2.81-1.76-5.86-4.47-8.37.53-.35 1.06-.7 1.59-1.05.58-.38 1.57-.41 2.18-.04 2.11 1.26 3.67 2.74 4.52 4.34.05-.07.11-.14.16-.21.61-.82 2.48-.83 3.09-.01l.02.02c-.19 0-.4.01-.59.01-1.26.03-2.72.29-3.03.91-.16.31.05.64.25.95.62.96 1.26 1.9 1.88 2.86.68-1.14 1.34-2.28 2.03-3.42.74.91 1.43 1.83 2.17 2.76.09-.04.19-.06.28-.09.9 1.27 1.77 2.53 2.59 3.82-.11-.95.34-1.92 1.25-2.75.38-.34 1.21-.32 1.55.05z" opacity=".1"/></g></g></g></g></svg>