<svg id="Layer_1" enable-background="new 0 0 512 512" height="512" viewBox="0 0 512 512" width="512" xmlns="http://www.w3.org/2000/svg"><g><path d="m5.155 353.469 8.157 6.328c2.406 1.867 5.277 2.771 8.133 2.771 3.911 0 7.792-1.697 10.406-4.947l169.88-211.187c7.512 2.22 15.874-.082 21.156-5.875l8.985-10.04c47.515 43.377 77.195 91.269 90.64 146.198 1.697 6.933 11.738 7.59 14.293.889 17.129-59.09-6.476-130.913-67.094-192.494 1.563-5.504.623-11.847-2.444-16.663l9.659-12.521c4.5-5.803 3.44-14.185-2.361-18.685l-22.026-17.087c-5.801-4.503-14.184-3.443-18.699 2.375l-9.653 12.513c-5.897-1.783-11.469-1.188-16.716 1.784-50.649-30.265-95.446-36.781-124.441-36.827-37.114-.102-65.26 10.145-78.686 19.697-5.971 4.175-2.849 13.774 4.414 13.623 20.656-.221 41.374 1.978 61.607 6.563 4.043.916 8.057-1.617 8.972-5.657.916-4.04-1.617-8.057-5.657-8.972-10.568-2.395-21.263-4.176-32.013-5.335 11.44-2.942 25.531-4.952 41.338-4.919 26.631.043 67.607 5.975 114.318 33.256l-16.083 24.045c-23.943-15.694-47.538-27.68-71.922-36.546-3.894-1.414-8.196.592-9.611 4.485-1.416 3.893.592 8.196 4.485 9.611 23.241 8.452 45.783 19.903 68.708 34.918l-7.529 11.257c-4.418 6.739-4.338 15.3-.394 21.896l-162.324 217.047c-4.321 5.778-3.199 14.076 2.502 18.499zm316.646-153.222c3.983 15.417 5.513 29.433 5.512 41.28-17.913-47.458-46.886-86.99-85.435-122.187l19.292-21.556c38.037 38.464 53.969 76.678 60.631 102.463zm-77.124-167.204 19.369 15.026-7.893 10.232-19.369-15.025zm-23.439 17.157 32.104 24.906c2.631 2.534 2.85 5.267.655 8.202l-42.24 47.197c-1.943 2.13-5.249 2.415-7.527.648l-25.07-19.448c-2.278-1.768-2.825-5.041-1.282-7.395l35.291-52.763c1.707-2.606 5.446-3.382 8.069-1.347zm-45.24 78.035 13.007 10.09-167.805 208.606-5.545-4.301z"/><path d="m507.648 154.788c-2.652-1.228-5.778-.8-8.006 1.094l-88.199 74.996c-1.007.856-1.77 1.963-2.211 3.208l-17.057 48.127-239.493 93.363c-2.241.874-3.926 2.769-4.533 5.095l-12.023 46.105-130.725 38.104c-3.2.932-5.401 3.866-5.401 7.2v32.42c0 4.142 3.358 7.5 7.5 7.5h403.833c4.143 0 7.5-3.358 7.5-7.5s-3.357-7.5-7.5-7.5h-396.333v-19.294l178.242-49.562 29.141 22.766c1.318 1.03 2.944 1.59 4.617 1.59h51c4.143 0 7.5-3.358 7.5-7.5s-3.357-7.5-7.5-7.5h-48.417l-29.965-23.41c-1.806-1.411-4.157-1.918-6.386-1.378l-40.499 9.828 8.965-34.378 224.957-87.697-8.856 30.491c-.59 2.03-.296 4.214.811 6.015l19 30.953c3.099 3.713 6.537 4.536 10.315 2.468 3.53-2.167 4.635-6.785 2.468-10.315l-17.264-28.125 29.568-90.954 74.303-63.18v319.182h-48.673c-4.143 0-7.5 3.358-7.5 7.5s3.357 7.5 7.5 7.5h56.173c4.143 0 7.5-3.358 7.5-7.5v-342.905c0-2.923-1.699-5.58-4.352-6.807z"/><path d="m386.528 214.373c3.081 0 5.97-1.914 7.063-4.982l5.947-16.67c1.393-3.901-.642-8.192-4.543-9.584-3.901-1.391-8.193.642-9.584 4.544l-5.947 16.67c-1.393 3.901.642 8.192 4.543 9.584.834.298 1.685.438 2.521.438z"/><path d="m368.943 233.841-11.708 32.816c-1.393 3.901.642 8.192 4.543 9.584 3.617 1.289 8.28-.889 9.584-4.544l11.708-32.816c1.393-3.901-.642-8.192-4.543-9.584-3.899-1.39-8.191.641-9.584 4.544z"/><path d="m305.66 298.501c2.403 0 4.766-1.154 6.216-3.293 2.323-3.429 1.428-8.093-2.002-10.416l-56.417-38.231c-3.429-2.325-8.092-1.427-10.417 2.001-2.323 3.429-1.427 8.093 2.001 10.416l56.418 38.231c1.29.874 2.753 1.292 4.201 1.292z"/><path d="m246.495 294.88c-9.907-.746-11.482 13.47-1.656 14.908l31.791 3.532c3.742.416 7.869-2.906 8.282-6.626.457-4.117-2.509-7.825-6.626-8.282z"/><path d="m419.054 185.354 13.931 2.771c3.708.728 7.208-.175 10.501-2.707l7.905-6.67c3.509-2.963 5.108-7.597 4.176-12.094l-3.059-14.723c-1.363-6.56-7.612-10.867-14.228-9.798l-8.835 1.423c-2.394.385-4.608 1.45-6.404 3.077l-9.385 8.502c-2.424 2.196-3.873 5.202-4.081 8.463l-.558 8.696c-.399 6.229 3.917 11.843 10.037 13.06zm5.426-19.784 8.083-7.323 5.745-.925 2.269 10.924-5.845 4.932-10.604-2.109z"/><path d="m229.233 257.379-9.371-8.517c-2.42-2.199-5.548-3.345-8.821-3.242l-8.708.289c-6.236.207-11.406 5.045-12.024 11.255l-1.408 14.136c-.378 3.805.975 7.519 3.712 10.187l7.405 7.221c3.128 3.049 8.273 4.283 12.442 2.984l14.356-4.471c6.397-1.992 10.075-8.629 8.373-15.11l-2.273-8.656c-.616-2.346-1.889-4.447-3.683-6.076zm-19.811 19.548-5.476-5.34 1.071-10.759 5.507-.183 8.072 7.335 1.479 5.628z"/><path d="m341.177 147.23 4.878 10.043c2.343 4.824 7.118 8.104 12.462 8.559l15.807 1.345c5.112.446 10.163-1.73 13.346-5.818l9.751-12.468c4.107-5.252 4.353-12.49.608-18.01l-7.084-10.441c-2.575-3.797-6.673-6.218-11.241-6.643l-14.215-1.322c-5.41-.501-10.729 1.935-13.879 6.362l-9.138 12.842c-3.243 4.559-3.739 10.517-1.295 15.551zm13.517-6.854 9.138-12.842c.062-.085.153-.135.268-.123l14.214 1.322c.089.008.168.055.218.128l7.084 10.44c.072.107.068.248-.012.349l-9.751 12.469c-.061.078-.15.12-.258.111l-15.807-1.345c-.103-.009-.194-.072-.24-.165l-4.879-10.044c-.047-.098-.037-.212.025-.3z"/></g></svg>