<svg clip-rule="evenodd" fill-rule="evenodd" stroke-linejoin="round" stroke-miterlimit="2" viewBox="0 0 64 64" xmlns="http://www.w3.org/2000/svg"><g transform="translate(-1928 -88)"><g transform="matrix(1.095 0 0 .923 1190.95 8.846)"><path d="m714.5 115h10.5v6.5h-10.5z" fill="#ffea2e"/></g><g transform="translate(1680)"><path d="m279 129.053v12.947h-16l-.07-6 4.868-11.075z" fill="#9e854a"/></g><g transform="translate(1680 2)"><path d="m259.5 123.868 1.5-4.868 18 7v5.053z" fill="#ac9922"/></g><g transform="translate(1680 -2)"><path d="m263.285 124-2.785 5-5.5-2 2.584-5.101z" fill="#777045"/></g><g transform="translate(1260)"><path d="m696 120h35v22h-35z" fill="#f6d73f"/></g><g transform="matrix(1 0 0 .923 1673 9.077)"><path d="m283 144h5v-14.796l-5-1.996z" fill="#eeb444"/></g><g transform="matrix(.143 0 0 .364 1886.57 76.364)"><path d="m696 120h35v22h-35z" fill="#f3f045"/></g><g transform="translate(1680 -2)"><path d="m297.946 115-9.946 19.368-39-14.368 3-5z" fill="#edd11d"/></g><g transform="matrix(1 0 0 .923 1678 9.077)"><path d="m283 144h5v-6.899l-5-1.996z" fill="#fdd87e"/></g><g transform="translate(1260)"><g><path d="m694.5 127.395-9.206-3.392 3.706-7.003h11z" fill="#ffea2e"/></g><g><path d="m681.11 122.462-12.11-4.462.6-1h14.4z" fill="#ffea2e"/></g><g><path d="m708 132.368-9.316-3.432 6.316-11.936h10.892z" fill="#ffea2e"/></g></g><g transform="matrix(1.217 0 0 1.217 1610.04 -32.739)"><circle cx="302.25" cy="140.25" fill="#635a4f" r="5.75"/></g><g transform="matrix(1.217 0 0 1.217 1575.04 -32.739)"><circle cx="302.25" cy="140.25" fill="#635a4f" r="5.75"/></g><g transform="matrix(.522 0 0 .522 1820.3 64.826)"><circle cx="302.25" cy="140.25" fill="#3f3d3b" r="5.75"/></g><g transform="matrix(.522 0 0 .522 1785.3 64.826)"><circle cx="302.25" cy="140.25" fill="#3f3d3b" r="5.75"/></g><g transform="translate(1260)"><path d="m718 113h-43v-2l1-2h3l1-2h2v-2l2-2 1.364.455 1.636-2.455 2-1 2 1.333v-3.704l1-1.629 4-1 2 3.5v.25l3-.75 2 3 2-1 2 1 1 3-.2.6 1.2-.6h2l2 2h3l1 2 1 3z" fill="#60594d"/></g><g transform="translate(1260)"><path d="m694 109v2l-1 2h-4l-2-4h-3v4h-9v-2l1-2h3l1-2h2v-2l2-2 1.364.455 1.636-2.455 2-1 2 1.333v-3.704l1-1.629 4-1 2 3.5v.25l3-.75 2 3 2-1 2 1 1 3-.2.6 1.2-.6h2l2 2h3l1 2 1 3v2h-6v-4h-4l-1 2h-4v-4h-4l1 2v4h-5zm3.4-2.8-.9-1.2v-1h-3.5l-1-1v2l2 2 3-1z" fill="#8b7a62"/></g><g><path d="m1935.61 121.501-1.51 3.056c-.12.255-.13.552-.03.816.11.263.32.47.59.567l5.5 2c.42.152.88.008 1.14-.342l3.64 1.341-.52 1.187c-.46-.083-.94-.126-1.42-.126-4.41 0-8 3.585-8 8s3.59 8 8 8c2.52 0 4.78-1.172 6.24-3h22.52c1.46 1.828 3.72 3 6.24 3 4.41 0 8-3.585 8-8s-3.59-8-8-8-8 3.585-8 8c0 1.061.21 2.073.58 3h-3.58v-5.368c0-.552-.45-1-1-1s-1 .448-1 1v5.368h-3v-7.211c0-.551-.45-1-1-1s-1 .449-1 1v7.211h-3v-9.033c0-.013 0-.025 0-.038v-2.548l10.65 3.926c.48.174 1.01-.032 1.24-.482l6.07-11.825h15.04v6h-3v-4c0-.552-.45-1-1-1s-1 .448-1 1v5c0 .552.45 1 1 1h4v12h-1v-1c0-.552-.45-1-1-1s-1 .448-1 1v3c0 .552.45 1 1 1s1-.448 1-1h2c.55 0 1-.448 1-1v-27c0-.552-.45-1-1-1s-1 .448-1 1v4h-4v-4c0-.552-.45-1-1-1h-6.44l2.05-4h7.39c.55 0 1-.448 1-1s-.45-1-1-1h-8c-.38 0-.72.21-.89.543l-1.77 3.457h-45.34c-.35 0-.68.184-.86.486l-3 5c-.15.255-.18.565-.08.846s.32.503.59.606zm42.39 10.499c3.31 0 6 2.689 6 6s-2.69 6-6 6-6-2.689-6-6 2.69-6 6-6zm-35 0c3.31 0 6 2.689 6 6s-2.69 6-6 6-6-2.689-6-6 2.69-6 6-6zm35 2c-2.21 0-4 1.792-4 4s1.79 4 4 4 4-1.792 4-4-1.79-4-4-4zm-35 0c-2.21 0-4 1.792-4 4s1.79 4 4 4 4-1.792 4-4-1.79-4-4-4zm7.42 7h4.58v-8.355l-8.18-3.014-.48 1.098c2.75 1.267 4.66 4.047 4.66 7.271 0 1.061-.21 2.073-.58 3zm27.58-5c1.1 0 2 .896 2 2s-.9 2-2 2-2-.896-2-2 .9-2 2-2zm-35 0c1.1 0 2 .896 2 2s-.9 2-2 2-2-.896-2-2 .9-2 2-2zm-11.63-20h12.63c.35 0 .68.184.86.484s.19.674.02.984l-2.35 4.451 11.5 4.235 4.31-8.154h-8.74l-1.57 2.968c-.26.488-.86.674-1.35.416s-.67-.864-.42-1.352l1.86-3.5c.17-.327.51-.532.88-.532h11c.35 0 .68.184.86.484s.19.674.02.984l-4.96 9.384 11.6 4.272 6.73-13.124h-8.65l-4.06 7.674c-.26.488-.86.674-1.35.416s-.67-.863-.42-1.351l4.35-8.207c.17-.327.51-.532.88-.532h10.28l1.03-2h-43.74zm23.63 12.645-11.84-4.363-.86 1.55 12.7 4.681zm-17.5-6.448-1.11 2.245s3.65 1.327 3.65 1.327l1.22-2.187zm-5.61-4.197 8.74 3.221 1.71-3.221zm45.64-2-1.54 3h8.01v-3zm-26.53-11.781-2.46.616-.65-1.282c-.11-.237-.32-.418-.57-.502l-3-1c-.36-.119-.76-.026-1.03.242l-2 2c-.18.187-.29.442-.29.707v1h-1c-.38 0-.72.214-.89.553l-.73 1.447h-2.38c-.55 0-1 .448-1 1s.45 1 1 1h3c.38 0 .73-.214.89-.553l.73-1.447h1.14s1.24.618 1.24.618v.382c0 .552.45 1 1 1s1-.448 1-1v-1c0-.379-.21-.725-.55-.894l-1.45-.724v-.968s1.27-1.27 1.27-1.27 2.02.674 2.02.674l.63 1.259-.87 2.607c-.17.523.11 1.09.63 1.265.53.174 1.09-.109 1.27-.633l.83-2.479s2.91-.73 2.91-.73l1.31 1.307v1.586c0 .552.45 1 1 1s1-.448 1-1v-1.279s1.92-.641 1.92-.641 1.34.665 1.34.665.85 1.702.85 1.702c.24.494.84.694 1.34.447.49-.246.69-.848.44-1.341l-1-2c-.09-.194-.25-.351-.44-.447l-2-1c-.24-.119-.52-.139-.77-.055l-2.41.805-1.27-1.27v-2.586c0-.334-.17-.647-.44-.832l-3-2c-.3-.199-.69-.223-1.01-.062l-2 1c-.49.246-.69.848-.44 1.341.24.494.84.694 1.34.447l1.48-.74s2.07 1.381 2.07 1.381zm5.61-6.139c-.26.111-.47.33-.56.604l-1 3c-.08.251-.06.526.06.763l.5 1c.24.494.84.694 1.34.447.49-.246.69-.848.44-1.341l-.31-.63s.7-2.086.7-2.086 2.78-.696 2.78-.696l1.29 1.931-.74 1.481c-.17.321-.14.703.06 1.002l1.54 2.318-.42.42c-.18.187-.29.442-.29.707v2c0 .552.45 1 1 1s1-.448 1-1v-1.586s.31-.307.31-.307 2.69.674 2.69.674v1.219c0 .552.45 1 1 1s1-.448 1-1v-2c0-.459-.31-.859-.76-.97l-.24-.061v-.351s1.24-.618 1.24-.618h1.35l1.19 1.197-.67 1.356c-.07.139-.11.292-.11.447v1c0 .552.45 1 1 1s1-.448 1-1v-.764s.62-1.236.62-1.236h1.76s.73 1.447.73 1.447c.24.494.84.694 1.34.447.49-.246.69-.848.44-1.341l-1-2c-.16-.339-.51-.553-.89-.553h-2.59l-1.7-1.707c-.19-.188-.44-.293-.71-.293h-2c-.15 0-.31.036-.45.106l-2 1c-.34.169-.55.515-.55.894v.469l-1.38-.345-1.47-2.196s.6-1.183.6-1.183 1.25-.627 1.25-.627 1.55.776 1.55.776c.5.247 1.1.047 1.34-.447.25-.493.05-1.095-.44-1.341l-2-1c-.28-.141-.62-.141-.9 0l-1.21.605-1.51-2.266c-.23-.351-.66-.518-1.07-.415l-2.14.535-1.75-3.061c-.22-.389-.68-.583-1.11-.474l-4 1c-.26.063-.47.224-.61.447l-1 1.629c-.29.47-.14 1.086.33 1.375s1.08.141 1.37-.329l.79-1.281s2.87-.717 2.87-.717z"/></g></g></svg>